<svg width="94" height="102" viewBox="0 0 94 102" fill="none" xmlns="http://www.w3.org/2000/svg">
<g clip-path="url(#clip0_13_98)">
<path fill-rule="evenodd" clip-rule="evenodd" d="M73.5868 8.24982C75.829 8.24468 77.0158 9.26326 78.7083 9.7913C79.6999 10.7456 80.6751 12.0229 80.8276 13.9019C81.0718 16.9114 79.7971 19.5228 78.5317 21.2668C78.2274 21.686 78.0669 22.1805 77.8253 22.4657C73.9001 27.0958 66.9005 28.5234 60.6948 28.9742C65.1193 27.21 70.4131 24.5246 73.4102 20.2391C74.4882 18.6976 76.1972 15.7467 75.7061 12.5317C75.4359 10.7566 74.2597 9.93398 73.5868 8.24931V8.24982Z" fill="black"/>
<path fill-rule="evenodd" clip-rule="evenodd" d="M56.8096 16.9849C53.3577 18.5549 49.3013 18.7334 46.0368 20.0678C43.99 20.9045 41.8015 22.0392 40.0323 23.3221C38.3585 24.5359 36.8854 26.6107 35.9705 28.9741C35.4848 30.2282 35.2517 31.3837 35.0874 33.256C28.509 34.1266 20.5938 33.701 17.074 37.5379C16.7985 40.4313 17.9803 41.9114 19.1932 43.3613C20.3898 46.6034 21.2679 49.9398 22.372 53.124C23.4816 56.3239 25.0379 59.2611 26.0807 62.3729C21.794 62.708 15.8266 63.2474 11.5993 64.942C9.37584 65.8333 7.539 66.7799 7.53741 69.0526C1.65018 52.9916 8.09264 36.6576 17.074 27.9465C20.5463 24.5789 24.4869 21.8481 29.2595 19.7253C29.4639 19.6343 29.8339 19.5182 30.1426 19.3827C30.8778 19.0604 32.1633 18.3546 33.3214 18.0125C38.5015 16.4832 45.5111 14.8552 52.7477 15.9572C54.0793 16.1593 55.2219 16.7689 56.8096 16.9844V16.9849ZM34.7342 18.6981C30.8456 19.878 27.6528 21.448 24.6679 23.3226C23.4981 24.0573 22.3457 25.0417 21.489 25.7204C21.136 26.0001 20.594 26.1241 20.2528 26.4055C19.1082 27.3494 18.115 28.6172 17.074 29.6598C15.9495 30.7857 14.5801 31.8569 14.2483 33.4278C21.6264 33.9036 27.1831 32.6129 33.498 32.0576C34.1486 28.521 35.7509 25.9073 37.5599 23.4938C40.1732 21.5153 43.0296 19.386 46.39 18.1843C47.2261 17.8853 48.5569 18.191 48.6859 16.8141C43.1688 16.568 38.7855 17.4684 34.7342 18.6981V18.6981ZM13.0121 34.2842C11.7685 37.0746 9.87351 39.2332 9.12683 42.5054C11.9057 42.4366 14.4827 42.5637 17.074 42.6767C17.0035 41.2909 15.6912 40.9653 15.4845 39.765C15.076 37.3928 17.1557 35.881 18.4868 34.6267C16.4735 34.6953 15.1797 34.0667 13.0126 34.2842H13.0121ZM8.59702 43.8756C7.97185 45.7244 7.34756 47.5736 7.1842 49.8703C11.2001 49.9146 15.4411 49.7411 19.1932 50.0415C18.8133 47.8408 18.5655 45.512 17.6038 43.8756H8.59755H8.59702ZM6.65439 51.583C6.76724 53.2911 6.34905 54.4841 6.47779 56.2075C11.2779 55.8659 17.015 56.0129 21.8422 56.2075C21.3002 54.5063 20.5045 53.0517 19.8996 51.4117C14.6983 51.5813 10.6227 51.3535 6.65492 51.583H6.65439ZM6.47779 57.9202C6.48432 59.7796 7.04539 60.4121 7.0076 62.0308C12.6963 61.9529 18.8485 62.3246 23.7849 61.517C23.7492 59.8388 22.5614 59.2781 22.372 57.7489C17.7662 58.1138 10.1004 57.6804 6.47832 57.9202H6.47779ZM7.71401 65.1138C8.80047 64.8545 10.3844 65.0775 10.7163 64.0861H7.3608C7.22093 64.677 7.55701 64.8089 7.71401 65.1138Z" fill="black"/>
<path fill-rule="evenodd" clip-rule="evenodd" d="M48.6859 16.8136C48.5569 18.1905 47.2261 17.8848 46.39 18.1838C43.0296 19.3855 40.1733 21.5148 37.5599 23.4933C35.7509 25.9068 34.1486 28.5205 33.498 32.0571C27.1831 32.6124 21.6264 33.9031 14.2483 33.4273C14.5801 31.8564 15.9495 30.7852 17.074 29.6593C18.115 28.6167 19.1082 27.3489 20.2528 26.405C20.594 26.1236 21.136 25.9996 21.489 25.7199C22.3457 25.0412 23.4981 24.0568 24.6679 23.3221C27.6528 21.4475 30.8456 19.8775 34.7342 18.6976C38.7855 17.4679 43.1688 16.5675 48.6859 16.8131V16.8136Z" fill="white"/>
<path fill-rule="evenodd" clip-rule="evenodd" d="M79.9445 33.4278C70.4797 33.3275 62.1606 33.6077 53.1009 33.2566C55.8467 32.0235 59.4108 32.3109 62.9907 31.8863C66.5192 31.4679 69.8699 30.7593 72.7038 29.6598C73.6467 29.2939 74.5103 28.6974 75.5295 28.4608C76.3667 28.2664 77.5876 29.9876 78.1785 30.6874C78.9838 31.6397 79.6531 32.443 79.9445 33.4278Z" fill="white"/>
<path fill-rule="evenodd" clip-rule="evenodd" d="M18.4868 34.6268C17.1557 35.881 15.076 37.3928 15.4845 39.765C15.6912 40.9653 17.0035 41.2909 17.074 42.6767C14.4827 42.5636 11.9057 42.4366 9.12683 42.5054C9.87351 39.2332 11.7685 37.0746 13.0121 34.2842C15.1797 34.0667 16.4735 34.6953 18.4868 34.6268Z" fill="white"/>
<path fill-rule="evenodd" clip-rule="evenodd" d="M58.9288 34.2842H80.8276C82.4594 36.755 84.0149 39.3002 85.066 42.3341C80.068 42.6678 72.6733 42.5054 66.5227 42.5054C64.4858 42.5054 62.4942 42.6959 61.4012 41.3065C62.1451 39.2565 61.9404 38.4781 61.4012 36.5108C60.7566 35.5945 59.2802 35.4848 58.9288 34.2842Z" fill="white"/>
<path fill-rule="evenodd" clip-rule="evenodd" d="M19.723 37.7097H20.2528C21.2344 39.9293 24.3235 40.9126 26.9637 40.9639C26.8429 41.562 25.796 41.3312 25.1977 41.3065C24.431 41.2748 23.3866 41.1003 22.7252 40.9639C22.2943 40.8751 21.5692 40.7339 21.3124 40.6214C20.5483 40.2866 19.9372 39.2721 19.5464 38.3948C19.5252 38.0865 19.7636 38.0334 19.723 37.7097Z" fill="white"/>
<path fill-rule="evenodd" clip-rule="evenodd" d="M21.1358 40.7927C28.4595 43.9864 41.2138 43.2856 50.2753 42.848C46.44 44.1183 40.2751 44.0305 34.381 44.0469C32.3693 44.0526 30.1339 43.7032 27.8467 43.3618C24.9028 42.9216 21.595 43.0723 21.1358 40.7927V40.7927Z" fill="white"/>
<path fill-rule="evenodd" clip-rule="evenodd" d="M85.5958 43.7043C86.0744 45.7523 86.908 47.456 87.0086 49.8703C80.5506 49.7675 72.8197 50.0827 67.2291 49.699C67.064 47.233 66.0771 45.5637 64.9333 44.0469C64.9008 43.9011 65.0022 43.8854 65.1099 43.8756C65.2529 43.8431 65.286 43.7038 65.4631 43.7043C69.396 43.7215 79.307 44.1051 85.5958 43.7043V43.7043Z" fill="white"/>
<path fill-rule="evenodd" clip-rule="evenodd" d="M17.6043 43.8756C18.5661 45.512 18.8138 47.8408 19.1937 50.0415C15.4416 49.7411 11.2007 49.9146 7.18473 49.8703C7.34809 47.5736 7.97238 45.7244 8.59755 43.8756H17.6048H17.6043Z" fill="white"/>
<path fill-rule="evenodd" clip-rule="evenodd" d="M23.9615 43.8756C24.782 43.7079 25.0276 44.0976 25.5509 44.2182C27.0612 44.4458 28.9821 44.4165 30.849 44.732C31.566 44.8533 32.6018 45.0184 32.9682 45.5884C29.9494 45.3762 26.5923 45.4918 23.9615 44.9033V43.8756Z" fill="white"/>
<path fill-rule="evenodd" clip-rule="evenodd" d="M24.1381 45.7596C25.5168 45.9996 27.055 46.4747 28.7297 46.616C29.6965 46.6976 31.2011 46.1861 31.732 47.3011C28.7855 47.3006 26.5453 47.7345 24.1381 46.7873V45.7596Z" fill="white"/>
<path fill-rule="evenodd" clip-rule="evenodd" d="M49.9221 64.7712C51.4702 59.8212 53.9527 55.7775 55.3968 50.7266C58.0908 50.1422 57.6287 46.4968 61.5779 47.1298C62.3371 47.8819 62.7987 48.3903 62.6375 50.0415C62.3217 53.2761 59.5309 55.8091 57.1628 57.7489C56.9874 57.8926 56.9837 58.2758 56.8096 58.434C56.6831 58.5488 56.1256 58.6163 55.9266 58.7766C55.2228 59.3433 53.7914 60.1072 52.9243 60.8319C51.5804 61.9555 51.1018 63.884 49.9221 64.7712ZM58.7522 54.666C58.9581 54.4383 58.9032 54.0912 59.1054 53.8096C59.3781 53.4299 59.9702 53.2283 60.165 52.9532C60.6572 52.2578 61.5669 50.1508 61.048 49.5277C60.7404 49.5406 60.4988 49.4895 60.3416 49.3564C57.5665 51.0074 55.0411 53.8029 54.867 57.4064C55.757 56.759 57.5796 55.9625 58.7522 54.666Z" fill="white"/>
<path fill-rule="evenodd" clip-rule="evenodd" d="M24.6679 47.9862C26.5097 48.0981 28.2843 48.3415 30.1426 48.5001C31.0056 48.5737 32.2321 48.354 32.615 49.1852C30.0304 48.9514 26.417 49.7155 24.6679 48.6713V47.9862Z" fill="white"/>
<path fill-rule="evenodd" clip-rule="evenodd" d="M54.8669 57.4064C55.0411 53.8029 57.5665 51.0074 60.3416 49.3564C60.4988 49.4895 60.7404 49.5406 61.0481 49.5277C61.5669 50.1508 60.6572 52.2578 60.165 52.9532C59.9702 53.2283 59.3781 53.4299 59.1054 53.8096C58.9032 54.0912 58.9581 54.4383 58.7522 54.666C57.5796 55.9625 55.757 56.759 54.8669 57.4064Z" fill="black"/>
<path fill-rule="evenodd" clip-rule="evenodd" d="M25.0211 49.8703C27.8956 50.5992 30.8108 50.263 33.1448 50.8979C32.9221 51.5371 31.9331 51.2273 31.3788 51.2405C29.6232 51.2821 27.2881 51.2093 25.3743 51.2405C25.2012 50.838 25.0652 50.3978 25.0211 49.8703Z" fill="white"/>
<path fill-rule="evenodd" clip-rule="evenodd" d="M19.8996 51.4118C20.5045 53.0517 21.3002 54.5064 21.8422 56.2075C17.015 56.0129 11.2779 55.866 6.47779 56.2075C6.34905 54.4841 6.76724 53.2912 6.65439 51.583C10.6227 51.3535 14.6983 51.5813 19.8996 51.4118Z" fill="white"/>
<path fill-rule="evenodd" clip-rule="evenodd" d="M87.5384 51.4118C87.4258 53.0637 87.7104 55.0467 87.5384 56.2075C80.7862 55.9377 72.7999 56.0614 65.2865 56.0362C65.7181 54.5607 66.8962 53.3203 66.8759 51.9256C67.0278 51.7874 66.9808 51.4565 67.2291 51.4118H87.5384Z" fill="white"/>
<path fill-rule="evenodd" clip-rule="evenodd" d="M25.7275 52.0968C28.575 52.456 30.8571 52.3416 33.3214 52.9532C33.187 53.5859 32.2259 53.28 31.732 53.2958C30.0926 53.3477 27.8617 53.2569 26.0807 53.2958C26.1001 52.7631 25.5262 52.8059 25.7275 52.0968Z" fill="white"/>
<path fill-rule="evenodd" clip-rule="evenodd" d="M26.4339 54.1522C28.794 54.5845 30.6529 54.4803 32.9682 54.8373C32.5783 55.6332 31.081 55.3456 29.966 55.3511C28.77 55.3569 27.5857 55.3965 26.7871 55.1798C26.9761 54.5393 26.3491 54.6917 26.4339 54.1522Z" fill="white"/>
<path fill-rule="evenodd" clip-rule="evenodd" d="M27.3169 56.0362C28.6642 56.396 29.9868 56.4133 31.5554 56.55C32.1108 56.5983 33.0475 56.5464 33.3214 57.0638C32.8734 57.696 31.6128 57.4016 30.6724 57.4064C29.6329 57.4117 28.5452 57.4023 27.6701 57.4064C27.7178 56.7898 27.3452 56.5808 27.3169 56.0362Z" fill="white"/>
<path fill-rule="evenodd" clip-rule="evenodd" d="M22.372 57.749C22.5614 59.2781 23.7492 59.8389 23.7849 61.517C18.8485 62.3246 12.6963 61.9529 7.0076 62.0308C7.04539 60.4121 6.48433 59.7796 6.47779 57.9202C10.1004 57.6805 17.7662 58.1138 22.372 57.749Z" fill="white"/>
<path fill-rule="evenodd" clip-rule="evenodd" d="M87.5384 57.9202C87.6757 59.4235 87.2794 60.4094 87.3618 61.8595C79.0576 62.3061 69.8713 61.4497 59.6352 62.0308C59.8207 61.1522 60.8079 60.6815 61.4013 60.1468C62.1615 59.4619 62.8582 58.7435 63.5205 57.9202C72.1811 57.7421 79.3035 58.3844 87.5384 57.9202Z" fill="white"/>
<path fill-rule="evenodd" clip-rule="evenodd" d="M28.1999 58.2628C28.3502 58.2313 28.3665 58.3296 28.3765 58.4341C29.1617 58.3388 30.0747 58.7055 31.0256 58.7766C32.2745 58.87 33.8283 58.346 34.381 59.2904C32.808 59.6337 30.2838 59.8269 28.5531 59.4617C28.5249 58.9753 28.23 58.7475 28.1999 58.2628Z" fill="white"/>
<path fill-rule="evenodd" clip-rule="evenodd" d="M29.4362 60.6607C31.3341 61.1608 34.1142 60.8054 36.1471 61.1745C35.4714 61.9332 33.996 61.7623 32.7916 61.8596C31.8148 61.9385 30.9087 62.1476 29.966 62.0308C29.7417 61.6198 29.3214 61.3988 29.4362 60.6607Z" fill="white"/>
<path fill-rule="evenodd" clip-rule="evenodd" d="M30.1426 62.8872C32.05 63.2637 34.8126 62.8111 36.6769 63.2297C36.1667 63.9979 34.7245 63.8191 33.6746 63.9149C32.4811 64.0236 31.3376 64.2139 30.3192 63.9149C30.4481 63.3907 30.0154 63.4096 30.1426 62.8872Z" fill="white"/>
<path fill-rule="evenodd" clip-rule="evenodd" d="M86.3022 64.0861C86.3926 64.8017 86.2037 65.2465 85.949 65.6276C82.9729 64.4604 78.2721 64.966 74.823 64.2574C75.4496 63.953 76.3065 63.7628 77.1189 63.7436C77.7214 63.7292 78.267 64.0472 78.8849 64.0861C80.9282 64.2146 83.4289 63.9405 86.3022 64.0861Z" fill="white"/>
<path fill-rule="evenodd" clip-rule="evenodd" d="M72.5272 63.9148C71.8185 64.6464 70.3386 64.7346 69.1718 65.1138C67.6826 65.5976 66.6015 66.4057 64.5801 66.1414C62.772 65.9051 61.5978 64.366 59.8118 64.2574C59.8901 64.1048 59.9669 63.9512 60.165 63.9148C63.4852 63.9594 67.8313 64.3036 72.5272 63.9148Z" fill="white"/>
<path fill-rule="evenodd" clip-rule="evenodd" d="M7.36133 64.0861H10.7168C10.3849 65.0775 8.801 64.8545 7.71454 65.1138C7.55754 64.8089 7.22146 64.677 7.36133 64.0861Z" fill="white"/>
<path fill-rule="evenodd" clip-rule="evenodd" d="M30.6724 64.7712C32.1633 64.9809 34.541 65.0473 36.5003 65.285C35.5104 66.3182 32.0061 66.3916 30.6724 65.6276V64.7712Z" fill="white"/>
<path fill-rule="evenodd" clip-rule="evenodd" d="M61.048 67.3404C59.635 68.0162 57.8395 68.9166 55.9266 69.3957C54.5687 69.7356 52.581 69.4875 52.0413 70.9371C52.8491 71.2956 54.2407 71.0879 54.6903 71.7935C54.1416 72.603 52.7152 72.3748 51.6881 72.6499C50.898 72.8614 49.1268 73.2293 47.8028 73.335C49.3126 72.3443 50.6025 71.1404 50.6285 68.7106C52.7073 68.5785 54.2804 68.9368 56.2798 68.8818C56.4246 67.1429 54.0613 67.8362 52.7477 67.5116C52.5784 66.9903 53.4829 66.2214 53.6307 65.4563C56.361 65.8348 58.9006 66.3966 61.048 67.3404Z" fill="black"/>
<path fill-rule="evenodd" clip-rule="evenodd" d="M86.832 68.0255C85.6391 72.9945 82.5065 78.0158 79.4147 81.7275C79.1788 82.0106 78.9409 82.2958 78.7083 82.5839C77.677 83.8604 76.2643 85.3121 74.8231 86.5232C73.9081 87.2921 73.0208 87.7577 71.9974 88.5785C71.4676 89.0033 70.9767 89.7759 70.0548 89.9487C69.1117 90.1253 67.8854 89.6123 66.5227 89.4349C65.1828 89.2603 64.1132 89.3679 63.3439 88.5785C63.5293 85.74 67.7371 87.2977 69.7016 86.5232C69.3403 85.876 68.4203 86.082 67.759 86.0094C65.4822 85.7598 63.1376 85.9551 59.9884 85.6668C58.9343 85.5704 57.6278 85.5474 56.633 85.3243C54.9342 84.9432 53.6115 83.4728 52.2179 82.5839C49.8241 82.3383 47.3672 82.2667 45.3304 81.8988C44.1067 81.6776 42.6745 81.3709 42.1516 80.186C43.0621 78.9706 46.1966 79.5288 47.9794 79.3296C50.1617 79.0859 52.3339 78.2837 54.3371 77.7882C56.1549 77.3386 57.6617 77.1031 59.282 76.5892C60.5507 76.1869 61.8129 75.7628 63.1673 75.219C63.8363 74.9505 64.5146 74.7792 65.1099 74.5339C65.704 74.2892 66.2612 73.7479 66.8759 73.5063C67.4481 73.2814 68.1833 73.3497 68.8186 73.1637C69.0828 73.0865 69.2684 72.889 69.525 72.8212C70.3345 72.6071 71.2875 72.3993 72.174 72.1361C72.6454 71.9961 73.32 71.9382 73.5868 71.451C73.4503 70.9049 72.5023 71.2268 72.174 71.2797C70.9193 71.482 69.3775 72.2239 67.759 72.1361C67.4312 71.8831 66.7269 71.9951 66.6993 71.451C63.5457 71.8773 58.817 73.0478 56.1032 71.7935C56.3834 71.266 57.4464 71.4976 57.6926 70.9371C57.8494 70.3122 57.3805 70.0249 57.6926 69.7382C59.6797 69.5743 61.5056 68.2385 63.6971 68.0255C64.816 67.9165 65.9332 68.1591 67.0525 68.0255C69.7904 67.6987 72.2865 66.4144 74.8231 66.484C78.4505 67.3626 83.7733 66.5953 86.832 68.0255V68.0255ZM66.6993 81.2137C64.9746 81.2137 63.0281 81.3707 62.1077 81.5562C59.9916 81.9827 57.4598 82.0762 55.5734 82.4126C54.9388 82.5256 53.9189 82.4537 53.6307 83.0977C59.5363 82.6957 64.9105 82.6563 70.0548 81.7275C69.3166 80.8694 67.7925 81.2137 66.6993 81.2137Z" fill="black"/>
<path fill-rule="evenodd" clip-rule="evenodd" d="M31.0256 66.6553C33.2435 67.1374 35.1869 66.7325 37.2067 67.5116C36.7939 68.0816 34.7856 68.1753 33.3214 68.0254C32.4347 67.9347 31.5706 67.5759 31.0256 67.3404V66.6553Z" fill="white"/>
<path fill-rule="evenodd" clip-rule="evenodd" d="M30.6724 68.5393C34.442 69.8483 38.6338 69.7906 42.858 69.9095C41.9702 70.8325 40.1531 70.51 38.6195 70.5946C35.9595 70.7412 33.0004 70.8726 31.0256 69.9095C30.9726 69.3905 30.4799 69.2963 30.6724 68.5393Z" fill="white"/>
<path fill-rule="evenodd" clip-rule="evenodd" d="M8.24435 71.1084C9.66088 72.475 11.3208 73.6056 13.3658 74.3626C13.2955 75.0938 11.8859 74.5259 11.2466 74.7052C11.3277 75.6541 12.1766 75.8586 12.3062 76.7605C14.5074 76.7728 16.8338 76.1792 19.1937 76.7605C20.454 77.0709 21.4975 78.1896 22.7258 78.6445C23.9763 79.1078 25.4995 79.0982 26.9642 79.3296C30.9786 79.9637 35.3036 80.5787 40.2094 80.3573C41.2173 81.4593 41.8882 82.167 43.7415 82.7551C45.4856 83.3085 47.8899 83.3755 50.2758 83.6115C51.301 83.7129 52.047 84.4172 53.1014 85.153C54.2451 85.9511 55.06 86.6909 56.9867 86.8658C57.8964 86.9483 58.9447 86.9473 59.989 86.6945C61.0353 87.6543 60.8806 89.0761 61.9316 89.9487C63.2973 91.0827 65.4802 90.9066 67.7595 91.3189C60.2962 96.054 49.9685 97.6739 40.7393 96.2859C39.7084 96.1309 39.2341 96.0273 38.0902 95.7721C35.1056 95.1061 32.2153 94.2056 29.6133 93.0317C27.1564 91.923 25.1564 90.9584 22.9024 89.4349C16.6727 85.2232 11.1495 78.3842 8.24488 71.1084H8.24435ZM18.84 84.1253C21.1238 84.7329 24.6795 83.9101 26.9637 83.9541C32.7766 84.0659 39.0727 84.3687 44.624 83.9541C42.7449 84.0065 41.8769 83.0787 40.7387 82.4126C32.8981 82.7377 22.6369 82.457 17.2506 82.4126C17.5759 83.3752 18.0541 83.9164 18.84 84.1253ZM53.1009 91.1476C44.9065 91.1476 35.4765 91.1935 29.7894 90.9764C29.6122 90.9758 29.5792 91.1153 29.4361 91.1476C29.4286 91.3835 29.5193 91.5236 29.6127 91.6615C32.0742 92.4861 34.9447 92.1753 37.7365 92.1753C46.3549 92.1753 55.4303 92.3159 63.5205 92.004C61.1363 90.7314 57.1663 91.1476 53.1009 91.1476Z" fill="black"/>
<path fill-rule="evenodd" clip-rule="evenodd" d="M70.0548 81.7275C64.9105 82.6563 59.5363 82.6957 53.6307 83.0977C53.9189 82.4537 54.9388 82.5256 55.5734 82.4126C57.4598 82.0762 59.9916 81.9827 62.1077 81.5562C63.0281 81.3707 64.9746 81.2137 66.6993 81.2137C67.7925 81.2137 69.3166 80.8694 70.0548 81.7275Z" fill="white"/>
<path fill-rule="evenodd" clip-rule="evenodd" d="M17.2511 82.4126C22.6376 82.457 32.8986 82.7377 40.7393 82.4126C41.8775 83.0787 42.7455 84.0065 44.6245 83.9541C39.0732 84.3688 32.7771 84.0659 26.9642 83.9541C24.6801 83.9101 21.1243 84.7329 18.8405 84.1254C18.0546 83.9164 17.5764 83.3752 17.2516 82.4126H17.2511Z" fill="white"/>
<path fill-rule="evenodd" clip-rule="evenodd" d="M63.5205 92.004C55.4308 92.3159 46.3549 92.1753 37.7365 92.1753C34.9447 92.1753 32.0742 92.4861 29.6127 91.6615C29.5193 91.5236 29.4285 91.3835 29.4361 91.1477C29.5792 91.1153 29.6122 90.9759 29.7893 90.9764C35.4765 91.1936 44.9065 91.1477 53.1009 91.1477C57.1663 91.1477 61.1363 90.7315 63.5205 92.004Z" fill="white"/>
<path fill-rule="evenodd" clip-rule="evenodd" d="M70.408 15.6147C69.1974 15.9946 68.4843 17.1053 67.5823 17.8412C64.9789 19.9652 61.9459 21.8638 57.6926 22.637C53.6074 24.4852 47.8548 24.354 43.9176 26.2337C43.013 26.6655 42.3833 27.5094 41.4451 27.7752C40.6075 29.1953 38.8516 30.6206 38.4429 32.9135C38.1603 34.4983 38.0888 36.6276 38.4429 38.0517C38.5893 38.6406 39.2802 39.2572 38.7961 39.7645C37.0899 39.7597 36.209 37.188 35.9705 35.6539C35.6128 33.3535 36.815 31.2735 37.2067 29.6592C37.6665 27.7641 39.3478 26.1584 40.7387 24.8635C41.5795 24.081 42.6686 23.8616 44.0942 23.1508C45.7373 22.3314 47.0256 21.5524 49.2157 20.9242C53.5928 19.6684 59.1001 18.5824 62.9907 16.6423C65.1903 15.5455 66.5925 13.8281 68.2888 12.3604C69.1797 10.7835 70.5724 8.37417 70.0548 4.99559C69.8533 3.68105 69.0957 2.41635 68.2888 1.74136C68.8002 1.59338 69.6062 2.09093 70.0548 2.42646C70.6662 2.88376 72.4915 4.99371 72.7038 5.85197C73.5167 9.13737 71.7632 12.1273 71.1144 14.587C72.3238 13.7044 72.7427 12.0556 73.057 10.3051C75.0768 12.3411 73.611 17.8019 71.9974 20.2391C71.2041 21.4375 69.86 22.7144 68.642 23.8359C66.7777 25.5522 63.5901 27.0209 60.8714 28.1178C57.3532 29.5373 53.1896 29.8494 49.7455 31.2007C51.5853 28.9738 54.894 28.263 57.6926 26.7476C58.1774 26.4852 58.9459 25.9268 59.6352 25.5486C61.3114 24.6291 62.9428 23.7033 64.5801 22.637C66.9589 21.0869 69.585 18.8552 70.408 15.6142V15.6147Z" fill="black"/>
<path fill-rule="evenodd" clip-rule="evenodd" d="M65.4631 20.7534C63.7227 23.0146 58.861 25.3491 55.3968 26.9194C53.2839 27.877 51.05 29.1024 49.0391 30.1736C46.9781 31.5431 45.3889 33.3703 43.5644 34.9693C43.4616 36.0115 42.5931 37.3466 43.3878 38.2235C43.0082 38.5803 42.6628 37.4509 42.3282 37.1959C42.2035 36.0374 42.3531 35.0157 42.6814 34.1129C43.8936 30.7791 47.1201 28.5268 50.6285 27.0906C55.5186 25.0884 61.3553 23.5298 65.4631 20.7534V20.7534Z" fill="black"/>
<path fill-rule="evenodd" clip-rule="evenodd" d="M51.6881 77.2743C50.4008 78.7867 46.843 78.5608 43.741 78.8158C39.028 79.2032 33.9386 79.1794 29.0829 78.4733C26.3528 78.0762 23.5885 77.3821 21.3124 76.418C22.1368 76.0012 23.2148 76.4053 24.1381 76.5892C29.6177 77.6813 38.158 78.3542 45.507 77.9594C47.5909 77.8464 50.1711 77.634 51.6881 77.2743Z" fill="black"/>
<path fill-rule="evenodd" clip-rule="evenodd" d="M73.7634 7.0509C75.075 7.05792 76.2984 6.95704 78.0019 7.22218C79.9544 8.46033 81.4677 9.29529 82.417 11.6753C83.8563 15.2839 81.8492 20.7161 79.5913 23.1508C83.1465 26.4491 86.2971 30.4456 88.7747 34.9688C90.0162 37.2355 90.8693 39.8359 91.7769 42.5049C92.9617 45.9892 93.6092 49.1264 93.8961 53.2953C94.8353 66.9357 89.2485 78.5704 82.2404 86.694C78.9697 90.4852 74.4663 93.7357 70.0548 96.1142C64.3583 99.1855 57.775 101.529 49.5688 101.938C29.9924 102.912 14.2077 92.3812 6.65437 79.6717C4.6969 76.3782 2.78447 72.6778 1.70949 68.5388C1.15054 66.3865 0.571815 64.1451 0.296668 61.6878C-1.26945 47.6968 3.53185 35.6539 10.5396 27.4327C15.7974 21.2639 22.1506 16.4147 30.8489 13.3881C40.2319 10.1234 54.33 9.16787 63.8737 13.5594C65.2969 12.8306 67.4995 10.9483 68.4653 9.10621C69.5174 7.09954 69.0172 4.02138 67.4057 2.25519C66.5292 1.97686 65.3469 1.42416 64.2269 1.91264C64.4879 0.0642316 66.5328 -0.0849492 67.7589 0.0286064C70.3098 0.264624 72.2298 2.55937 73.057 4.48177C73.4261 5.33866 73.525 6.23563 73.7634 7.05039V7.0509ZM64.5801 22.6375C62.9428 23.7038 61.3113 24.6296 59.6352 25.5492C58.9459 25.9273 58.1773 26.4857 57.6926 26.7481C54.8939 28.2635 51.5853 28.9743 49.7454 31.2013C53.1895 29.8499 57.3531 29.5378 60.8714 28.1183C63.59 27.0215 66.7777 25.5528 68.6419 23.8364C69.86 22.7149 71.2041 21.438 71.9974 20.2396C73.611 17.8024 75.0768 12.3416 73.057 10.3056C72.7427 12.0561 72.3238 13.705 71.1144 14.5875C71.7632 12.1278 73.5167 9.13789 72.7038 5.85249C72.4915 4.99423 70.6662 2.88428 70.0548 2.42698C69.6062 2.09145 68.8002 1.59389 68.2887 1.74187C69.0956 2.41687 69.8533 3.68157 70.0548 4.99611C70.5724 8.37469 69.1797 10.784 68.2887 12.361C66.5925 13.8286 65.1902 15.546 62.9906 16.6428C59.1001 18.5829 53.5927 19.6689 49.2156 20.9247C47.0256 21.553 45.7373 22.3319 44.0942 23.1513C42.6686 23.8621 41.5795 24.0815 40.7387 24.8641C39.3478 26.1589 37.6665 27.7646 37.2066 29.6598C36.8149 31.2741 35.6128 33.354 35.9704 35.6544C36.209 37.1885 37.0899 39.7602 38.7961 39.765C39.2801 39.2577 38.5893 38.6411 38.4429 38.0523C38.0888 36.6281 38.1603 34.4988 38.4429 32.914C38.8515 30.6211 40.6075 29.1958 41.4451 27.7757C42.3832 27.5099 43.013 26.6661 43.9176 26.2343C47.8547 24.3545 53.6074 24.4857 57.6926 22.6375C61.9459 21.8643 64.9788 19.9658 67.5823 17.8418C68.4842 17.1058 69.1974 15.9951 70.408 15.6152C69.585 18.8557 66.9589 21.0874 64.5801 22.6375ZM75.706 12.5317C76.1972 15.7467 74.4882 18.6976 73.4102 20.2391C70.4131 24.5246 65.1192 27.21 60.6948 28.9742C66.9005 28.5234 73.9001 27.0958 77.8253 22.4657C78.0669 22.1805 78.2274 21.686 78.5317 21.2668C79.7971 19.5228 81.0718 16.9114 80.8275 13.9019C80.6751 12.0229 79.6999 10.7457 78.7083 9.79131C77.0157 9.26327 75.829 8.24469 73.5868 8.24983C74.2597 9.93398 75.4358 10.7566 75.706 12.5312V12.5317ZM52.7477 15.9572C45.511 14.8552 38.5015 16.4832 33.3214 18.0125C32.1632 18.3546 30.8777 19.0604 30.1425 19.3827C29.8338 19.5182 29.4639 19.6343 29.2595 19.7253C24.4868 21.8481 20.5463 24.5789 17.0739 27.9465C8.09262 36.6569 1.65015 52.9921 7.53738 69.0526C7.53897 66.78 9.37582 65.8333 11.5992 64.942C15.8266 63.2474 21.794 62.7081 26.0807 62.3729C25.0378 59.2611 23.4816 56.3239 22.372 53.124C21.2679 49.9398 20.3898 46.6034 19.1932 43.3613C17.9803 41.9115 16.7984 40.4313 17.0739 37.5379C20.5938 33.701 28.509 34.1266 35.0874 33.2561C35.2517 31.3837 35.4848 30.2282 35.9704 28.9742C36.8854 26.6107 38.3584 24.5359 40.0323 23.3221C41.8015 22.0392 43.99 20.9045 46.0368 20.0678C49.3013 18.7334 53.3577 18.555 56.8096 16.9849C55.2219 16.7689 54.0793 16.1593 52.7477 15.9567V15.9572ZM50.6285 27.0906C47.1201 28.5268 43.8935 30.7791 42.6813 34.1129C42.353 35.0157 42.2034 36.0374 42.3281 37.1959C42.6628 37.4509 43.0082 38.5803 43.3877 38.2236C42.593 37.3466 43.4616 36.0115 43.5643 34.9693C45.3888 33.3703 46.9781 31.5431 49.039 30.1736C51.05 29.1024 53.2839 27.877 55.3967 26.9194C58.861 25.3491 63.7227 23.0146 65.4631 20.7535C61.3553 23.5298 55.5186 25.0884 50.6285 27.0906ZM88.2448 49.1852C87.2451 43.6057 85.0127 38.6725 82.417 34.798C82.2707 34.5797 82.3807 34.159 82.2404 33.9417C82 33.5698 81.6116 33.2545 81.3573 32.914C79.8158 30.8505 77.2586 27.8008 75.5294 26.7481C75.5194 26.6436 75.5031 26.5453 75.3528 26.5768C69.4522 31.2449 57.4647 30.0097 49.2156 32.4002C49.0828 33.1278 47.8678 32.8058 47.6262 33.4278C53.3644 34.2183 63.7647 35.557 59.8118 42.1629C63.868 43.4043 66.6447 46.1079 65.8163 51.2405C65.5035 53.1781 63.9775 55.6835 62.4608 57.4064C60.669 59.442 57.7438 62.1307 55.7499 63.401C55.3909 63.6299 54.9909 63.6616 54.8669 64.0862C55.8873 64.7522 57.8061 64.5471 58.399 65.6276C58.553 65.3774 58.5392 64.9645 59.1054 65.1138C60.0795 65.827 61.2972 65.7083 62.4608 66.1415C63.2003 66.4167 63.7147 67.0756 64.5801 67.1691C65.307 67.2477 66.5172 66.9922 67.2291 66.8266C68.9098 66.4357 70.4468 65.654 72.174 65.4564C74.6307 65.1751 77.723 65.6871 80.6509 65.7989C83.4896 65.9073 84.898 66.0594 87.1852 66.8266C89.0855 61.8442 89.1879 54.4451 88.2448 49.1852ZM19.0166 37.1959C18.7767 37.8767 18.095 38.1292 17.9569 38.9087C18.4993 40.3239 19.5473 41.2486 20.4294 42.3342C21.9812 46.256 23.4537 50.2483 24.8445 54.3234C26.587 59.4297 28.9937 63.6456 29.0829 69.9095C29.7552 71.1177 30.628 71.6415 32.0852 72.1361C36.251 73.55 44.0519 73.2972 47.6262 71.6223C48.3008 70.3925 48.7543 68.9483 49.039 67.3404C51.5309 66.9024 52.3777 64.8691 53.4541 63.0585C56.3311 61.3248 59.4676 58.8828 61.4012 56.3788C62.2634 55.2622 62.8986 54.5461 63.5205 53.2958C65.1969 49.9251 64.3205 46.3436 61.4012 44.0469C59.8072 43.6206 58.5551 43.7016 57.6926 44.732C57.2182 46.2702 57.2032 48.2538 56.1031 49.1852C56.3453 46.8438 57.3141 44.8413 57.1628 43.0193C57.0375 42.3414 55.7861 42.7557 55.7499 41.9916C56.6118 41.35 58.3389 41.1207 58.9288 40.2789C58.9537 40.2434 59.2785 39.3651 59.282 39.2512C59.3429 37.2538 54.8256 35.9845 52.5711 35.4831C50.3733 34.9945 47.6343 34.872 45.3304 34.9693C44.781 35.4641 44.1085 35.8396 44.0942 36.8533C46.4529 37.4893 51.7292 37.483 54.6903 37.881C52.1725 36.8403 48.7072 36.7184 45.507 36.3395C48.1082 35.9338 51.1837 36.486 53.4541 37.0246C54.4549 37.262 55.7187 37.3658 56.1031 38.2236C55.3623 39.4477 53.6727 39.932 52.0413 40.2789C47.2781 41.2916 39.9938 41.0022 33.6746 40.6214C30.4323 40.426 27.348 40.5632 24.8445 39.9363C23.4219 39.5801 21.1948 38.8143 22.1954 37.3672C23.0521 37.3355 22.5264 38.6449 23.6082 38.3948C26.4835 36.9818 31.1282 37.2483 35.4406 36.8533C35.4646 36.5709 35.2474 35.2773 35.0874 34.6268C29.2472 35.0139 23.4299 35.4232 19.0166 37.1959ZM25.3743 64.2574C23.7795 63.8196 20.3301 64.2722 18.1335 64.6C16.7469 64.8069 15.3249 65.2755 14.0717 65.6276C12.948 65.9433 11.1003 66.5136 10.363 66.9978C7.92326 68.5999 9.00619 70.9543 11.246 71.7935C11.921 72.0465 12.1831 72.2152 12.8355 72.4786C13.9708 72.9372 14.853 73.1932 16.3675 73.6776C17.9603 74.1871 19.7558 74.7563 20.9592 75.0478C21.8867 75.2725 22.9788 75.2 23.9614 75.3903C24.904 75.5727 25.779 75.9456 26.6105 76.0754C29.3609 76.505 32.4223 76.6042 35.264 76.7605C35.7576 76.7876 36.1811 77.0692 36.6768 77.1031C39.1035 77.2696 41.4045 76.8892 43.7409 76.7605C44.6656 76.7097 45.6122 76.8386 46.5666 76.7605C49.1284 76.5507 51.4958 75.9943 53.4541 75.7329C55.9447 75.4004 57.6551 74.7837 59.282 73.8489C58.0779 73.8067 56.1293 73.342 55.0435 72.6499C50.2057 74.1871 44.7624 74.5365 39.3259 74.7052C33.0363 74.9007 27.1873 73.9871 21.489 73.1638C18.1003 71.997 13.6288 71.8806 11.246 69.7382C11.1065 68.404 11.4391 67.5276 12.3057 67.1691C12.4593 67.9339 11.5931 68.2764 11.9525 68.7106C13.7564 70.6881 17.5195 71.3344 20.7826 71.9648C22.6616 72.3278 24.4178 72.7753 26.0807 72.4786C25.2196 72.1149 23.5929 72.4936 23.255 71.6223C24.6105 71.5094 26.4319 71.8487 27.4935 71.451C26.142 70.2598 22.6684 71.3888 21.3124 70.5946C22.623 70.0959 24.2534 69.9073 25.9041 69.7382C24.324 68.0234 20.4289 69.8653 18.3102 69.2244C20.2955 68.2382 23.1129 68.0589 25.9041 67.8542C25.918 67.2417 25.109 67.2191 24.8445 67.1691C22.2051 66.6698 18.5505 68.2589 16.1909 67.8542C18.8834 66.4691 22.6558 66.1312 26.7871 66.1415C26.8383 65.1326 26.2149 64.4869 25.3743 64.2574ZM53.6307 65.4564C53.4829 66.2214 52.5783 66.9903 52.7477 67.5117C54.0613 67.8362 56.4246 67.1429 56.2797 68.8819C54.2804 68.9368 52.7072 68.5785 50.6285 68.7106C50.6025 71.1405 49.3126 72.3444 47.8028 73.335C49.1268 73.2293 50.898 72.8615 51.6881 72.6499C52.7152 72.3749 54.1416 72.603 54.6903 71.7935C54.2407 71.0879 52.8491 71.2956 52.0413 70.9372C52.581 69.4875 54.5686 69.7357 55.9265 69.3957C57.8395 68.9166 59.635 68.0162 61.048 67.3404C58.9005 66.3967 56.361 65.8349 53.6307 65.4564ZM74.823 66.484C72.2865 66.4145 69.7904 67.6987 67.0525 68.0255C65.9332 68.1591 64.816 67.9166 63.6971 68.0255C61.5056 68.2386 59.6797 69.5743 57.6926 69.7382C57.3805 70.025 57.8494 70.3122 57.6926 70.9372C57.4464 71.4976 56.3834 71.266 56.1031 71.7935C58.817 73.0478 63.5457 71.8773 66.6993 71.451C66.7269 71.9951 67.4311 71.8831 67.7589 72.1361C69.3775 72.224 70.9192 71.482 72.174 71.2797C72.5023 71.2268 73.4503 70.905 73.5868 71.451C73.32 71.9383 72.6453 71.9962 72.174 72.1361C71.2874 72.3993 70.3345 72.6071 69.525 72.8212C69.2683 72.889 69.0827 73.0865 68.8185 73.1638C68.1833 73.3498 67.4481 73.2814 66.8759 73.5063C66.2612 73.748 65.704 74.2892 65.1099 74.534C64.5146 74.7792 63.8362 74.9505 63.1673 75.2191C61.8129 75.7629 60.5507 76.1869 59.282 76.5893C57.6617 77.1031 56.1549 77.3386 54.3371 77.7882C52.3339 78.2837 50.1617 79.0859 47.9794 79.3297C46.1966 79.5289 43.0621 78.9707 42.1515 80.186C42.6744 81.3709 44.1067 81.6777 45.3304 81.8988C47.3671 82.2667 49.824 82.3383 52.2179 82.5839C53.6115 83.4728 54.9342 84.9432 56.6329 85.3243C57.6278 85.5475 58.9343 85.5704 59.9884 85.6669C63.1376 85.9551 65.4822 85.7599 67.7589 86.0094C68.4203 86.082 69.3402 85.876 69.7016 86.5232C67.737 87.2977 63.5293 85.74 63.3439 88.5785C64.1131 89.368 65.1828 89.2604 66.5227 89.4349C67.8854 89.6124 69.1117 90.1253 70.0548 89.9487C70.9766 89.7759 71.4676 89.0033 71.9974 88.5785C73.0208 87.7578 73.9081 87.2921 74.823 86.5232C76.2643 85.3122 77.6769 83.8604 78.7083 82.5839C78.9409 82.2958 79.1788 82.0106 79.4147 81.7275C82.5065 78.0158 85.6391 72.9945 86.832 68.0255C83.7733 66.5953 78.4505 67.3627 74.823 66.484V66.484ZM22.9018 89.4349C25.1558 90.9584 27.1558 91.923 29.6127 93.0317C32.2148 94.2056 35.1051 95.1062 38.0897 95.7721C39.2335 96.0273 39.7079 96.1309 40.7387 96.2859C49.9674 97.674 60.2957 96.054 67.7589 91.319C65.4797 90.9067 63.2967 91.0828 61.931 89.9487C60.8801 89.0761 61.0348 87.6543 59.9884 86.6945C58.9441 86.9473 57.8958 86.9483 56.9862 86.8658C55.0594 86.6909 54.2446 85.9512 53.1009 85.153C52.0464 84.4172 51.3004 83.713 50.2752 83.6116C47.8893 83.3755 45.4851 83.3086 43.7409 82.7552C41.8877 82.167 41.2168 81.4593 40.2089 80.3573C35.303 80.5788 30.978 79.9637 26.9637 79.3297C25.4989 79.0983 23.9757 79.1079 22.7252 78.6446C21.4969 78.1897 20.4534 77.0709 19.1932 76.7605C16.8332 76.1792 14.5068 76.7729 12.3057 76.7605C12.176 75.8586 11.3271 75.6541 11.246 74.7052C11.8853 74.5259 13.295 75.0939 13.3653 74.3627C11.3202 73.6056 9.66032 72.4751 8.24379 71.1084C11.1489 78.3842 16.6722 85.2233 22.9018 89.4349ZM45.507 77.9595C38.158 78.3543 29.6177 77.6813 24.138 76.5893C23.2148 76.4053 22.1368 76.0013 21.3124 76.418C23.5885 77.3821 26.3528 78.0763 29.0829 78.4733C33.9386 79.1795 39.0279 79.2033 43.7409 78.8158C46.843 78.5608 50.4008 78.7867 51.6881 77.2744C50.1711 77.634 47.5909 77.8464 45.507 77.9595Z" fill="white"/>
<path fill-rule="evenodd" clip-rule="evenodd" d="M35.0874 34.6268C35.2474 35.2773 35.4647 36.5709 35.4406 36.8533C31.1282 37.2483 26.4835 36.9818 23.6083 38.3948C22.5264 38.6449 23.0521 37.3355 22.1954 37.3672C21.1948 38.8143 23.4219 39.58 24.8445 39.9363C27.348 40.5632 30.4324 40.426 33.6746 40.6214C39.9938 41.0021 47.2782 41.2916 52.0413 40.2788C53.6728 39.932 55.3623 39.4476 56.1032 38.2235C55.7187 37.3658 54.4549 37.262 53.4541 37.0246C51.1837 36.4859 48.1082 35.9338 45.507 36.3395C48.7072 36.7184 52.1725 36.8403 54.6903 37.881C51.7292 37.4829 46.4529 37.4893 44.0942 36.8533C44.1085 35.8396 44.781 35.4641 45.3304 34.9693C47.6344 34.872 50.3733 34.9945 52.5711 35.4831C54.8256 35.9845 59.3429 37.2538 59.282 39.2512C59.2785 39.3651 58.9537 40.2434 58.9288 40.2788C58.339 41.1207 56.6118 41.35 55.75 41.9916C55.7862 42.7557 57.0376 42.3413 57.1628 43.0192C57.3141 44.8413 56.3453 46.8438 56.1032 49.1852C57.2032 48.2538 57.2182 46.2702 57.6926 44.732C58.5551 43.7016 59.8072 43.6206 61.4013 44.0469C64.3205 46.3435 65.197 49.9251 63.5205 53.2958C62.8987 54.5461 62.2634 55.2622 61.4013 56.3787C59.4676 58.8828 56.3312 61.3248 53.4541 63.0585C52.3777 64.869 51.5309 66.9024 49.0391 67.3404C48.7544 68.9483 48.3009 70.3925 47.6262 71.6222C44.052 73.2971 36.2511 73.5499 32.0852 72.1361C30.628 71.6414 29.7553 71.1177 29.0829 69.9095C28.9938 63.6456 26.587 59.4297 24.8445 54.3234C23.4537 50.2483 21.9812 46.256 20.4294 42.3341C19.5473 41.2486 18.4993 40.3239 17.957 38.9086C18.0951 38.1292 18.7768 37.8767 19.0166 37.1959C23.4299 35.4232 29.2472 35.0138 35.0874 34.6268V34.6268ZM19.5464 38.3948C19.9372 39.2721 20.5483 40.2866 21.3124 40.6214C21.5692 40.7339 22.2943 40.8751 22.7252 40.9639C23.3866 41.1003 24.4311 41.2748 25.1977 41.3065C25.796 41.3312 26.8429 41.562 26.9637 40.9639C24.3235 40.9126 21.2344 39.9293 20.2528 37.7097H19.723C19.7636 38.0334 19.5252 38.0865 19.5464 38.3948ZM27.8467 43.3618C30.1339 43.7032 32.3693 44.0526 34.381 44.0469C40.2751 44.0305 46.44 44.1183 50.2753 42.848C41.2145 43.2856 28.4595 43.9864 21.1358 40.7927C21.595 43.0723 24.9028 42.9216 27.8467 43.3618V43.3618ZM23.9615 44.9033C26.5923 45.4918 29.9494 45.3762 32.9682 45.5884C32.6018 45.0184 31.566 44.8533 30.849 44.732C28.9821 44.4165 27.0612 44.4458 25.5509 44.2182C25.0276 44.0976 24.782 43.7079 23.9615 43.8756V44.9033ZM24.1381 46.7873C26.5453 47.7345 28.7855 47.3006 31.732 47.3011C31.2011 46.1861 29.6965 46.6976 28.7297 46.616C27.055 46.4747 25.5168 45.9996 24.1381 45.7597V46.7873ZM52.9243 60.8319C53.7914 60.1072 55.2228 59.3433 55.9266 58.7766C56.1256 58.6163 56.6831 58.5488 56.8096 58.434C56.9837 58.2758 56.9874 57.8926 57.1628 57.7489C59.5309 55.8091 62.3217 53.2761 62.6375 50.0415C62.7987 48.3903 62.3371 47.8819 61.5779 47.1299C57.6287 46.4968 58.0908 50.1423 55.3968 50.7266C53.9527 55.7776 51.4702 59.8212 49.9221 64.7712C51.1018 63.884 51.5804 61.9555 52.9243 60.8319ZM24.6679 48.6713C26.4169 49.7154 30.0304 48.9514 32.615 49.1852C32.2321 48.354 31.0056 48.5737 30.1426 48.5001C28.2843 48.3415 26.5097 48.0981 24.6679 47.9862V48.6713ZM25.3743 51.2405C27.2881 51.2093 29.6232 51.2821 31.3788 51.2405C31.9331 51.2273 32.9221 51.5371 33.1448 50.8979C30.8108 50.263 27.8956 50.5992 25.0211 49.8703C25.0652 50.3978 25.2012 50.838 25.3743 51.2405ZM26.0807 53.2958C27.8617 53.2569 30.0926 53.3477 31.732 53.2958C32.2259 53.28 33.187 53.5859 33.3214 52.9532C30.8571 52.3416 28.575 52.456 25.7275 52.0968C25.5262 52.8059 26.1001 52.7631 26.0807 53.2958ZM26.7871 55.1798C27.5857 55.3965 28.77 55.3569 29.966 55.3511C31.081 55.3456 32.5783 55.6332 32.9682 54.8373C30.6529 54.4803 28.794 54.5845 26.4339 54.1522C26.3491 54.6917 26.9761 54.5392 26.7871 55.1798ZM27.6701 57.4064C28.5452 57.4023 29.6329 57.4117 30.6724 57.4064C31.6128 57.4016 32.8734 57.696 33.3214 57.0638C33.0475 56.5464 32.1108 56.5983 31.5554 56.55C29.9868 56.4133 28.6642 56.396 27.3169 56.0362C27.3452 56.5808 27.7178 56.7898 27.6701 57.4064ZM28.5531 59.4617C30.2838 59.8268 32.808 59.6336 34.381 59.2904C33.8283 58.346 32.2745 58.8699 31.0256 58.7766C30.0747 58.7055 29.1617 58.3388 28.3765 58.434C28.3665 58.3296 28.3502 58.2312 28.1999 58.2628C28.23 58.7475 28.5249 58.9753 28.5531 59.4617ZM29.966 62.0308C30.9087 62.1476 31.8148 61.9385 32.7916 61.8595C33.996 61.7623 35.4714 61.9332 36.1471 61.1744C34.1142 60.8053 31.3341 61.1607 29.4361 60.6606C29.3214 61.3988 29.7417 61.6198 29.966 62.0308ZM30.3192 63.9148C31.3376 64.2139 32.4811 64.0236 33.6746 63.9148C34.7245 63.8191 36.1667 63.9979 36.6769 63.2297C34.8126 62.8112 32.05 63.2637 30.1426 62.8872C30.0154 63.4096 30.4481 63.3907 30.3192 63.9148ZM30.6724 65.6276C32.0061 66.3917 35.5104 66.3182 36.5003 65.2851C34.541 65.0473 32.1632 64.9809 30.6724 64.7712V65.6276ZM31.0256 67.3404C31.5706 67.5759 32.4347 67.9347 33.3214 68.0255C34.7856 68.1753 36.794 68.0816 37.2067 67.5116C35.1869 66.7325 33.2435 67.1374 31.0256 66.6553V67.3404ZM31.0256 69.9095C33.0003 70.8726 35.9595 70.7412 38.6195 70.5946C40.1531 70.51 41.9702 70.8325 42.858 69.9095C38.6338 69.7906 34.442 69.8483 30.6724 68.5393C30.4799 69.2963 30.9726 69.3905 31.0256 69.9095Z" fill="black"/>
<path fill-rule="evenodd" clip-rule="evenodd" d="M87.1852 66.8265C84.8981 66.0594 83.4897 65.9073 80.6509 65.7989C77.723 65.687 74.6307 65.1751 72.174 65.4563C70.4468 65.654 68.9098 66.4357 67.2291 66.8265C66.5172 66.9922 65.307 67.2477 64.5801 67.1691C63.7147 67.0756 63.2003 66.4167 62.4608 66.1414C61.2972 65.7083 60.0795 65.827 59.1054 65.1138C58.5392 64.9644 58.553 65.3774 58.399 65.6276C57.8061 64.547 55.8873 64.7522 54.8669 64.0861C54.9909 63.6615 55.3909 63.6299 55.7499 63.401C57.7438 62.1307 60.669 59.442 62.4608 57.4064C63.9775 55.6835 65.5035 53.1781 65.8163 51.2405C66.6447 46.1079 63.868 43.4043 59.8118 42.1629C63.7647 35.5569 53.3644 34.2183 47.6262 33.4278C47.8678 32.8058 49.0828 33.1277 49.2156 32.4002C57.4649 30.0097 69.4526 31.2449 75.3529 26.5768C75.5031 26.5453 75.5194 26.6436 75.5295 26.7481C77.2586 27.8007 79.8158 30.8505 81.3573 32.914C81.6117 33.2545 82 33.5698 82.2404 33.9416C82.3808 34.159 82.2707 34.5797 82.417 34.798C85.0127 38.6724 87.2451 43.6057 88.2449 49.1852C89.1879 54.445 89.0855 61.8441 87.1852 66.8265ZM78.1785 30.6874C77.5876 29.9876 76.3667 28.2664 75.5295 28.4608C74.5103 28.6974 73.6467 29.2939 72.7038 29.6598C69.8699 30.7594 66.5192 31.4679 62.9907 31.8863C59.4107 32.3109 55.8467 32.0235 53.1009 33.2565C62.1613 33.6077 70.4797 33.3275 79.9445 33.4278C79.6531 32.443 78.9838 31.6397 78.1785 30.6874ZM61.4012 36.5108C61.9404 38.4781 62.1451 39.2565 61.4012 41.3065C62.4942 42.6959 64.4858 42.5054 66.5227 42.5054C72.6733 42.5054 80.068 42.6678 85.066 42.3341C84.0149 39.3002 82.4593 36.755 80.8275 34.2842H58.9288C59.2802 35.4848 60.7566 35.5945 61.4012 36.5108ZM65.4631 43.7044C65.286 43.7038 65.2529 43.8431 65.1099 43.8756C65.0022 43.8854 64.9008 43.9011 64.9333 44.0469C66.0771 45.5637 67.064 47.233 67.2291 49.699C72.8197 50.0827 80.5506 49.7675 87.0086 49.8703C86.908 47.456 86.0744 45.7523 85.5958 43.7044C79.307 44.1051 69.396 43.7215 65.4631 43.7044ZM67.2291 51.4117C66.9808 51.4565 67.0278 51.7874 66.8759 51.9256C66.8962 53.3203 65.7181 54.5606 65.2865 56.0362C72.7999 56.0614 80.7862 55.9377 87.5384 56.2075C87.7105 55.0467 87.4258 53.0637 87.5384 51.4117H67.2291ZM63.5205 57.9202C62.8582 58.7435 62.1615 59.4619 61.4012 60.1468C60.8078 60.6815 59.8206 61.1522 59.6352 62.0308C69.8713 61.4497 79.058 62.3061 87.3618 61.8596C87.2794 60.4094 87.6757 59.4235 87.5384 57.9202C79.3035 58.3844 72.1811 57.7421 63.5205 57.9202ZM78.8849 64.0861C78.267 64.0473 77.7214 63.7292 77.1189 63.7436C76.3065 63.7628 75.4496 63.9531 74.823 64.2574C78.2721 64.966 82.9729 64.4604 85.949 65.6276C86.2037 65.2465 86.3926 64.8017 86.3022 64.0861C83.4289 63.9405 80.9282 64.2146 78.8849 64.0861ZM60.165 63.9149C59.9669 63.9512 59.89 64.1048 59.8118 64.2574C61.5978 64.366 62.772 65.9051 64.5801 66.1414C66.6015 66.4057 67.6826 65.5976 69.1718 65.1138C70.3386 64.7346 71.8185 64.6464 72.5272 63.9149C67.8313 64.3037 63.4851 63.9594 60.165 63.9149Z" fill="black"/>
<path fill-rule="evenodd" clip-rule="evenodd" d="M26.7871 66.1414C22.6558 66.1312 18.8834 66.4691 16.1909 67.8542C18.5505 68.2589 22.2051 66.6698 24.8445 67.1691C25.109 67.2191 25.918 67.2417 25.9041 67.8542C23.1129 68.0589 20.2955 68.2382 18.3102 69.2244C20.4289 69.8653 24.324 68.0234 25.9041 69.7382C24.2534 69.9073 22.623 70.0959 21.3124 70.5946C22.6684 71.3888 26.142 70.2598 27.4935 71.451C26.432 71.8487 24.6105 71.5094 23.2551 71.6223C23.5929 72.4935 25.2196 72.1149 26.0807 72.4786C24.4178 72.7753 22.6617 72.3278 20.7826 71.9648C17.5195 71.3344 13.7565 70.6881 11.9525 68.7106C11.5931 68.2764 12.4593 67.9338 12.3057 67.1691C11.4391 67.5276 11.1065 68.404 11.2461 69.7382C13.6288 71.8806 18.1004 71.997 21.489 73.1637C27.1873 73.9871 33.0364 74.9007 39.3259 74.7052C44.7624 74.5365 50.2057 74.1871 55.0435 72.6499C56.1293 73.342 58.0779 73.8067 59.282 73.8488C57.6551 74.7837 55.9448 75.4004 53.4541 75.7329C51.4958 75.9942 49.1284 76.5507 46.5666 76.7605C45.6123 76.8386 44.6657 76.7097 43.741 76.7605C41.4045 76.8892 39.1036 77.2696 36.6769 77.1031C36.1811 77.0692 35.7576 76.7876 35.264 76.7605C32.4223 76.6042 29.3609 76.505 26.6105 76.0754C25.7791 75.9456 24.904 75.5727 23.9615 75.3903C22.9788 75.2 21.8867 75.2725 20.9592 75.0478C19.7558 74.7563 17.9603 74.1871 16.3675 73.6776C14.853 73.1932 13.9709 72.9371 12.8355 72.4786C12.1831 72.2152 11.921 72.0465 11.2461 71.7935C9.00621 70.9543 7.92328 68.5999 10.3631 66.9978C11.1004 66.5136 12.948 65.9433 14.0717 65.6276C15.3249 65.2755 16.7469 64.8069 18.1336 64.6C20.3302 64.2721 23.7796 63.8196 25.3743 64.2574C26.2149 64.4869 26.8383 65.1326 26.7871 66.1414Z" fill="black"/>
</g>
<defs>
<clipPath id="clip0_13_98">
<rect width="94" height="102" fill="white"/>
</clipPath>
</defs>
</svg>
